<svg width="800" height="800" viewBox="0 0 800 800" fill="none" xmlns="http://www.w3.org/2000/svg">
<circle cx="400" cy="400" r="389.5" stroke="url(#paint0_linear_4003_3)" stroke-width="21"/>
<path d="M497.635 276.978L622.089 152.524" stroke="black" stroke-width="18"/>
<path d="M495.242 607.259L623.685 478.816" stroke="black" stroke-width="18"/>
<path d="M175.331 607.26L277.447 505.144" stroke="black" stroke-width="18"/>
<path d="M179.321 280.169L301.382 158.108" stroke="black" stroke-width="18"/>
<path d="M496.04 286.552H176.927V605.664H496.04V286.552Z" stroke="black" stroke-width="18"/>
<path d="M302.179 160.502H621.291V479.615H414.666C412.628 523.898 401.527 520.676 369.192 479.615H340.472L302.179 418.983V160.502Z" stroke="black" stroke-width="18"/>
<circle cx="302.179" cy="154.119" r="42.5802" fill="black" stroke="black"/>
<circle cx="177.725" cy="276.978" r="42.5802" fill="black" stroke="black"/>
<circle cx="177.725" cy="605.664" r="42.5802" fill="black" stroke="black"/>
<circle cx="496.838" cy="276.978" r="42.5802" fill="black" stroke="black"/>
<circle cx="496.838" cy="605.664" r="42.5802" fill="black" stroke="black"/>
<circle cx="621.292" cy="154.119" r="42.5802" fill="black" stroke="black"/>
<circle cx="621.292" cy="479.614" r="42.5802" fill="black" stroke="black"/>
<path d="M228.894 421.348H207.916L203.254 339.936L329.123 342.262L399.05 491.13L396.719 421.348H373.41L371.079 339.936L445.668 307.294L476.893 331.227L468.978 421.348H445.668L438.676 526.021L333.785 530.673L277.843 412.044V500.434H305.814V526.021L236.761 584.124C236.761 584.124 232.963 565.535 223.996 559.393C215.925 553.864 199.265 555.404 199.265 555.404L212.577 495.782H233.556L228.894 421.348Z" fill="black" stroke="black"/>
<path d="M546.011 264.045C551.814 293.493 548.057 307.939 521.53 327.87V454.646H573.552C574.079 433.48 578.848 426.394 595.847 422.733V234.318C585.751 235.854 583.731 233.239 587.541 222.515L546.011 264.045Z" fill="black" stroke="black"/>
<path d="M381.639 635.191L355.847 663.17V731.366L377.705 762.842L397.814 721.749L377.705 731.366V707.76H397.814V692.459H377.705V663.17L397.814 667.978L381.639 635.191Z" fill="black"/>
<path d="M446.339 762.842L412.24 635.191C442.45 673.215 459.644 679.461 490.929 663.17L446.339 762.842Z" fill="black"/>
<path fill-rule="evenodd" clip-rule="evenodd" d="M289.836 653.552V721.749C309.692 733.721 318.978 727.828 334.863 704.262V667.978C314.976 648.432 305.341 646.617 289.836 653.552ZM304.699 704.262V671.476C313.253 665.471 316.891 667.017 321.749 676.721V695.519C315.897 704.161 312.19 706.292 304.699 704.262Z" fill="black"/>
<path d="M381.639 635.191L355.847 663.17V731.366L377.705 762.842L397.814 721.749L377.705 731.366V707.76H397.814V692.459H377.705V663.17L397.814 667.978L381.639 635.191Z" stroke="black"/>
<path d="M446.339 762.842L412.24 635.191C442.45 673.215 459.644 679.461 490.929 663.17L446.339 762.842Z" stroke="black"/>
<path fill-rule="evenodd" clip-rule="evenodd" d="M289.836 653.552V721.749C309.692 733.721 318.978 727.828 334.863 704.262V667.978C314.976 648.432 305.341 646.617 289.836 653.552ZM304.699 704.262V671.476C313.253 665.471 316.891 667.017 321.749 676.721V695.519C315.897 704.161 312.19 706.292 304.699 704.262Z" stroke="black"/>
<defs>
<linearGradient id="paint0_linear_4003_3" x1="400" y1="0" x2="400" y2="800" gradientUnits="userSpaceOnUse">
<stop offset="0.12" stop-color="#EA2821"/>
<stop offset="0.585" stop-color="#4C89D8"/>
<stop offset="1" stop-color="#002B64"/>
</linearGradient>
</defs>
</svg>
